<svg xmlns="http://www.w3.org/2000/svg" viewBox="0 0 160 160" width="320" height="320"><defs><style>@font-face{font-family:&quot;Virgil&quot;;src:url(&quot;https://excalidraw.com/Virgil.woff2&quot;)}@font-face{font-family:&quot;Cascadia&quot;;src:url(&quot;https://excalidraw.com/Cascadia.woff2&quot;)}</style></defs><path fill="#fff" d="M0 0h160v160H0z"/><path d="M10.3 11.7c5.5-2.4 14.4-.7 18.5-3.3M9.6 10.3c7.4-.9 13.2.7 21.1.7m-1.3 0c-.5 4-.9 6.7 2.4 18.5m-1-20.4c-1 8.8-1.6 14.7-.7 20m-1.4-.5c-2 2.4-6.8 1.4-18 .5m20.3.7c-6.4.6-10 0-21.1 1.1m2-.3c-1.4-6.2-1.8-10.2-.4-19M9.8 30.9c-.7-7 .7-14.5 0-21.5" stroke="#000" fill="none" stroke-linecap="round"/><path d="M9 29.2c7.4 1.6 10.2-1 21.1.7M11 29.3c4.6 1.5 9.7 1.6 18.2 1.2m-.3.5c-.4 4.2 2.9 10 2.3 18.9m-1.4-19.1c-.3 5 .6 10.3-.5 18.5m2 1.8C25.8 50 20.7 49 9 48.1m20.6 2.1c-6-.6-14.3.7-20.2.7m1.4-1.9c-.7-5.7.6-10.1-.1-20.1M9 50.4c1.4-6.1.9-11.6 0-21" stroke="#000" fill="none" stroke-linecap="round"/><path d="M8.8 48.4c6.5 1.4 10.5.8 21.7 3.4M10.7 51a98 98 0 0119.8-1.6m1.3.1a97.7 97.7 0 01-3.6 20m2-20.5c-1.1 8-.9 15.6-1 21.6m1.4-1.5c-8.8-1-13.5 2.8-20.9 0m20.2 1.8c-7 0-12.6 0-19.6-.6m1.2 1.3c-1-7.7-2.3-12 .2-23.5M9.9 69.4c-1-6.8-.4-12.4.4-19.5" stroke="#000" fill="none" stroke-linecap="round"/><path d="M9 69.3c6 2.5 8.4 1.9 22.8 2.2m-22-1.8c8.6-.4 16.6-.6 20 1.2m.3.5c-1.8 3.6 1.6 8.1-.8 18.9m.2-21c-.4 5.4 1 9.2.6 21m1.2 1.6c-6.7-3-11-.5-22-2.2M30.2 91c-7.7-.5-16.3-.7-20.4-.3m-.5-1c2.3-9.2 1.5-14-.3-20m.6 21c1-5.5 0-11 0-20.9M9.6 109.9a53 53 0 0121.3-.1m-20-.7c4 2 9.6 1.2 19.2.1m-.2 1.6c.9 4.4-.6 8 1 19.1m-.4-19.2c.3 6.6-.9 15 .1 18.4m.5 1.9c-4.4-.4-12.5-2.4-20.4-.6m18.3-.6c-5 .8-11.5.3-19 1m1.4-.3c-1.3-4.7-.2-10.8-1-19.3m-1 18.5c.8-5.1 1.4-11.3 1.1-19.4M31.8 8.7c4.3 3 9.5 3.2 16.3 2.3m-18.7-.5c5.5-.9 13-.8 21.1-.6m-1 1.7c-.8 3.8 1 8.6-1 17m2.1-18c-.3 4.4-.4 8.9-1.1 18.4m-.4 1.5c-4.9-1.2-14 1.3-20.5 1.3m21.7-2.3c-6.5.4-12.3 1.3-20 0M28 30.8c2.7-7 1.6-12.6 0-22M30 29.4c-.9-5-.2-9.3 0-19.3" stroke="#000" fill="none" stroke-linecap="round"/><g stroke-linecap="round"><path d="M30.7 29l18.2 1.8 1.4 18-22 2.9" stroke-width="0"/><path d="M28.1 31c9.4-1.8 18.5-2.4 22.9-2.6M30.5 30c5 .9 9.5-.1 20.3-.6m-2.4-.6c.6 5.4.2 13.2 2.7 22M49.5 29c1.2 8 .4 12.8.7 21.8m-1.6 1c-3.6.4-8.7-1-19.6-1.6m21.3-.8c-6.3.6-10.8-.2-19.9 1m-2.3-1.6c1.2-2.6 2.6-9.1.6-20.5M30 50.1c.4-5.2.5-10.4 0-21" stroke="#000" fill="none"/></g><path d="M31 48.8c7-.3 12.4 3 18.5 2.3m-20.4-1.4c7.6-.6 12.3.3 20-.5m-.5 2C51 55.4 50 60 49 69m.8-19.4c.5 5.3-.1 8.4 1 19.8m-.3 1.4c-9.4-.3-16.5 1-19-.1M50.9 69c-5.4 1.4-11.2.8-21.5 0m1.3.8c-1.9-6.3-1.5-9.8.5-20M30.4 70c-.6-7.1-.1-13-1-19.7" stroke="#000" fill="none" stroke-linecap="round"/><g stroke-linecap="round"><path d="M31.7 70.2l19.6-.8.5 19.3-20 3.3" stroke-width="0"/><path d="M28.4 69.5c10.4 0 16.7.3 21.7 2m-20.8-1.8c5-.8 8.3-.5 20.2-.3m1.3.7c0 3.6-1.8 7.1.5 21.8m-.5-22.2c-1 7-1.6 12.6-.6 21.3m0-1.3c-5.3 1.8-12.8-.9-21 0m21.2-.2c-8.2 0-16.7 0-20.8 1.1m-1.3-1.5c1.3-4.6 1.4-12.2 2.3-18.9m-1.4 20.1c.3-7.7 1.2-13.7.2-21.1" stroke="#000" fill="none"/></g><g stroke-linecap="round"><path d="M31.4 109.5l19.1 1.1 1 19.5-23-.9" stroke-width="0"/><path d="M29.9 109.4c4.3 0 10 1.5 19.9 0m-20.7.1c6.3 0 10 .4 20.1-.5m1.6 1.8c.5 4.2 0 11.5-.9 20.8m.8-20.7c-1 4.1 0 10.5-1.6 18.7M51 132c-8-2.7-17.3-1-20.6-1.5m19.4 0l-19-.9m-.3.7c.4-5.7-.7-13.3.7-20.4M29.7 130c.7-4.3.2-9.3.6-20" stroke="#000" fill="none"/></g><path d="M51 9.9c4.5 1.6 8.1-.3 20.6-1.4m-22.4.8c5.6.3 10.7 1.5 21.4 1M68.9 8c2.5 10 .9 13.3 1.6 23.6m-1.2-20.7c.8 5.4 1 10.1.2 19.2m1-1.2c-7 1-10.2-.7-19.7 1.9m18.3-1.4c-4.5 1-8.9.4-19.7-.2m.3 1c1-5.1 1.1-10.4 0-21.9m.7 21.9c-.9-7.7.5-13.5.2-20.5" stroke="#000" fill="none" stroke-linecap="round"/><path d="M51.6 28.5c5.1 1.8 11.3 0 17 .5m-18 1.4c4.2-.2 8.4-1 18.4.3m1.5.9c-1.2 6 1.3 12.9 1.3 18.8M69.5 30c.4 8.6 1.3 16.2 0 19.5m1.3 1.2c-7.4-1.3-13.4-2.9-22-1.6m20.6 0c-7 .6-13.3.6-19.3 1.1m-.3-2c.8-5.5-1-9.9.5-19.4m.3 20.8c.1-4.7 0-7.4-1.3-18.9" stroke="#000" fill="none" stroke-linecap="round"/><path d="M48 48.4c5.2.5 9.8.1 23.2 2.7m-21.7-1.6c6.3 1.1 15 .3 20 .7m2.3-1.6c0 9.3.1 17-1.1 20.4m0-18.7c-1.3 5.6-.9 13-1.7 20.1m-.3-2.3c-6.7 1.1-11 2.5-19 .7m20.9 1c-4.8.5-9.2.5-20.5 0m-1.2 1c1.3-6.3-.6-7.8 1.3-19.5m.7 19.7a53.9 53.9 0 01-.5-20.5" stroke="#000" fill="none" stroke-linecap="round"/><g stroke-linecap="round"><path d="M50 68.7l20.3 1.4-.2 19.5-20 2.4" stroke-width="0"/><path d="M49 68.8c3.6 2.5 10.2 2.1 21.1 1.8m-19.4.4c4.2-1.3 9.7 0 19-1.1m.6 2c.1 6.6-1.4 14-.6 19.6m0-21.7a60 60 0 01-.2 20m-.3 1.4c-3.3-1.5-10-3-20-1.6m21.1.5c-7 0-14.7-1-20-.6M49 88.4c2.7-3 2.3-8.7 2.9-19.7m-1 21c-1.7-7-.5-15.4-.4-19" stroke="#000" fill="none"/></g><path d="M49.4 108.3c5 0 11.8 1.5 20 .2m-19.9 2.4c4.5-.6 9.4-1.5 19.5-1m1.8 1.2c-1.5 7.1.1 14.1.8 18.3m-.7-19.7c-1.1 7.1-.2 11.8-1.3 21m2.4-.3c-10.7-1.9-17 0-21.6.8m20-.6c-5.6-.5-11.2.2-20.9-.2m.7.5c.9-7 0-11.5-.4-22m.3 21.5c.7-6.6.5-12.4 0-19.7M71.2 11.1c4.5-.8 9.4-1.9 17.7-3m-19.4 2.1c8.6-.5 15 .7 19.8.7M90.7 9c-.3 7 1 15.3-.1 19.9M89 10.4c1.4 4.4.8 9.5 0 19m.8-.6c-6.7.4-10.6 2.4-20 1.4m20.3-.3c-7.5.5-13.8-.4-19.7.3m-.2 1C69.6 27 68.8 22 72 8.8m-1.6 21.8c-.6-7.8.3-15.8-1-20.3M109.4 10.3c9.2 1.6 12.8-1.1 20.1-.2m-20.3 0c7.8-.2 13.1-.8 21.2-.4m-2.3 2.2a45.8 45.8 0 011.5 19.8m-.2-20.8c.5 5 .9 11.2-.1 19.1m.6-2c-7.8.8-13 .4-19.3 3.2m19.9-2c-7.4.9-13 .6-20.2.5m-.7 2.3c-1.3-10.5.9-17-.5-22.4m.6 19.5c.8-5 0-11.6-.5-18.3" stroke="#000" fill="none" stroke-linecap="round"/><g stroke-linecap="round"><path d="M70.6 29.8l17.8.4L92 51.5 71.7 51" stroke-width="0"/><path d="M69 28c8.5 4 13 1.2 21.5 3.5M69.3 31c6.2 0 11.7-.7 20.2-.8m1-1.2c-1 6.5 1.3 10.5.3 21.9m-1.7-21.4c.5 6.3 1.2 10.6.3 19.8m.3 1c-4.3.1-9.2 0-20-1.9m20.7 1.9c-7.7-1.1-13-.2-19.8-.5m1.4-1c-.2-7-3.2-13.4-1-19.2m-1.6 20.7c.5-6.9.3-13.5 1.6-19.2" stroke="#000" fill="none"/></g><g stroke-linecap="round"><path d="M109 31.8l20.2-1.5 1 18.2-22.1 1.1" stroke-width="0"/><path d="M110.3 31.6c9.1-3.3 14-2 19.8-1.6m-20 1c5-.6 9.3-.4 19.6-1m2.2-.4c-1.9 6-.2 9.5-.2 20.5m-.8-20.4c-.8 8.2-.8 15.3-.8 20.9m-2-1.4a44.3 44.3 0 01-17 .9m18-.9c-6.3.6-14 1.2-19.4 1.5m2.3-2.2c-3-5.3-2-14.2-2.4-18.6m-.5 20.6c1-6.1.3-12 1.8-21.4" stroke="#000" fill="none"/></g><path d="M69.7 49c4.8 2.4 7.7.5 22.1-.4m-21.5 1.7c7-.4 15.1.2 20.5 0m.9-2.2c-1 7.6-2.7 11.4-3 20M90.3 50c-1 4-.8 9.5.3 20m.2.2c-7.2-1.8-12.5-1-22 .7m22-.7c-6.5-.6-12.6-1-20 .9m-2.2-.2c2.2-6 2-8.9 1.5-22M69.8 70c1.2-5.5.5-12.8-.6-20M111.6 51.9c2.4-2.8 9.4-1.8 18.4-2.9m-19 1c6.5-.6 13.8-.3 19-.6m-.4.5c1 9-.2 16.4.4 22m-.3-22c.3 7.8-.5 15.6.9 21m-1.4-2.3c-5.8-.6-13.9 2.4-19.1 2.8m19.1-1.2a74 74 0 00-18.5.5m-2.2-1.9c2.2-3.5.7-8.2 1.4-19.4m.5 20.5c-.6-5-1.1-7.8-1.4-20.4" stroke="#000" fill="none" stroke-linecap="round"/><path d="M71.5 69.3c4 2.5 8.5 2.4 18.8 2.7m-20.2-2.2c7.2 1 13.4-.3 19.5 0m1.2-.8c-1.3 7.4-2.9 15.2-1.6 22.2m0-21.6c.6 7.6.6 13.8 1.1 20.5m-2 .6c-6-1.9-11-.4-19.4-2.3m20.8 2.5c-8 0-14-1.4-18.9-1.2m-1.3 1c1.7-5.2-.9-9.6.6-20.6m.9 20.2c-1.1-6.7-1-10.6-.3-19.5" stroke="#000" fill="none" stroke-linecap="round"/><g stroke-linecap="round"><path d="M70.5 110.6l21-.5-3 19.1-16.8 1.3" stroke-width="0"/><path d="M68.3 109.3c5.5 1.7 12.6.2 20.2-.9m-17.6 1.2c7 .6 13.7-.5 19 1.2m1.2-1.5c-.4 7.6-1.1 14.2-1.7 21m.3-20.6c1 8-.4 14.1 1 21.2m-.3-1.8c-9 1.8-14.2 1.5-19.2.3m19.5.8c-4.6-.1-8-.6-20.3-.2m.5 1.2c-1.1-8.1.3-16.1-2-21m1.5 20.5c-.4-5 0-10.2.3-21" stroke="#000" fill="none"/></g><g stroke-linecap="round"><path d="M109.2 70.3l21-1.8-2.1 21.1-16.5.4" stroke-width="0"/><path d="M111.9 68.3c2.7 1.1 9.1 1.6 17.1 3m-19-1c3.8 0 8.6-.6 19.4.4m.5.2c1.9 2.8 2 7.4 2 20.8m-2-21.6c.2 4 .3 10.2 1 20.7m-2.3.2c-6.3-.5-9.2-1-17.2-2.1m18.8.8c-7.2.5-14.5.8-19.5-.5m-1.9 1.4c.8-7 .6-11.9.6-22.2m.5 21.3c-.5-5.8 1.1-11.3-.4-18.8" stroke="#000" fill="none"/></g><g stroke-linecap="round"><path d="M110.6 111.6l19.5-3.1-.9 23.2-18.7-2.8" stroke-width="0"/><path d="M109.3 108.2c7.5 1.7 11.9.5 19.1 3.5m-18.8-1.6c4.6-1 7.6-.4 21.2-.1m-1.5.6c1.7 6.1 2.3 12.3 1 20.5m-.6-20.5c1.1 5.9.1 14.8 1.2 20m-1.8-2.2a26 26 0 01-19.7-.4m20.8 2.1c-5.7.8-11.8.4-20.2.6m1.2-.9c-.8-5-1.4-14-1-21m.5 21.2l-1-19.7" stroke="#000" fill="none"/></g><path d="M89.3 9.9c9.7.1 15 1.8 19.6.4M90.6 9c2.8 1.1 8.5 1.7 19 1.1m1.8-1.5c-1 6 0 11.5-2.4 20.6m.6-18.6a48.8 48.8 0 01-.3 20.2m2-.3c-5.4-.2-10.2-1.7-22.9 1M110 29c-7.5 1.2-12.6.7-20.3.6m2 .5c.2-5.3-.1-14-2.6-20.4m.9 20.5c.2-8.2-.4-15.5 0-20.4" stroke="#000" fill="none" stroke-linecap="round"/><g stroke-linecap="round"><path d="M130.3 10.2L148.5 8l1.1 23.5-19.6-.8" stroke-width="0"/><path d="M128.3 9.2c7.5.8 14.3-.4 23-.8m-21 1c6.3.3 12 0 20.3-.3m.3 2.5c-1.4 8-.9 16 .8 17.3m-1.6-19c-.9 8 .4 16.7.7 20m.2-1.7c-4.5 2.8-9 3-22.1 2.8m20.8-1c-3.7-.3-7.7.8-20.5-.2m1.4 0c-1.3-8.2-.6-16.3-2.2-20.5m1.3 20c-.6-2.7-.7-8.2 1.2-19.7" stroke="#000" fill="none"/></g><path d="M89.9 32c5-1.9 11.8-3 20.4-3.8m-21.3 1c8.4 1.4 16.2.3 21.1.3m-1.5 1c.8 5.5 1.2 7.5.6 20.5m1.4-20.2c.2 6.4-1.6 11.4.2 18.6m-.3 1.4c-7.3.2-15.6-2.2-19-.2M109 49c-6.9 1.4-15.3.6-19.4 1m.5 1.7c.7-5.8-1.9-13.6-.4-20m.5 18.3c-.5-5.4 0-9.8-.4-20.3M129.2 29.6c8.5.6 15 1.8 19.2.6m-19 .2c8.2-.5 15.9.2 19.7.5m2.5-1.3c.1 6 .3 13.3-2.7 22.2m1-22.5c.1 6.6 1 12.3 0 19.7m-1.7 1.6c-2.2-.4-7.2-1.6-17.2-2.3m19 2c-4.7.3-8.1-1.1-20.2.7m0-1.9l-.5-20.9m0 21c1.6-7 .3-12.1.3-19" stroke="#000" fill="none" stroke-linecap="round"/><path d="M92 50c3 1.6 6.8.4 16.2 1.2m-19-1c8 .8 13.6.1 20.3-1m1 .3c1.1 5.4-1.3 9.7.5 21m-.2-19.6c-.1 3.3-1.6 10.1-1.4 19.5m1.4-.3c-7.8-1.4-18 1.4-20.2 1.8m18.4-1.7c-5.5-.7-13.4-.7-19-.5m1.7 1.3c-.5-8.9-2.8-13.7 0-22.1m-1.7 21c-.6-5.8 0-12.3-.3-20.3M129.6 50.1c8.3-1 17.4-1.6 20.6 1.8m-19.8-2.2c5.6-.2 12.4-.5 20.5 0m-1.3 2c.5 6 2.2 9 2.2 17.7M149.3 50a42.1 42.1 0 01-.3 19.6m1.6 1.6c-5.1 0-11-.4-22.2-2.8m22 1.3c-6.1 1-14 0-19.4-.5m-1.9.4c.7-5-.8-10-.9-18.7m1 20c0-7.1 1.7-12.8 1-20.8" stroke="#000" fill="none" stroke-linecap="round"/><g stroke-linecap="round"><path d="M90.8 69l18 2.4-.4 17.8L90 90" stroke-width="0"/><path d="M90 70c7-1.3 11-2 21.2.6m-21 0c7.8-.8 14.4-.9 19-1m.3 1.9c.3 5-.5 14.4 1 17.6m.4-18.3c-1.7 3.7 0 9-.5 20.1m-.3 0c-8.7-2.4-13.1-.2-18.2 0m18.3-.4c-6.4-1.1-12.2-.7-20.5-.4m1.3 1.3c-2.7-10-1.2-15-2.1-21.2m1 19.2c.4-5.3 0-11.2-.3-18.5" stroke="#000" fill="none"/></g><path d="M88.2 110.9c7-1.4 11-2.4 23.5-2.8m-21.6 2c4.2-1 9.9.8 19.9.3m.6.5c-.6 7.5-1.1 12.9.5 20.5m-.5-20.8c-1.5 6.9 0 16 0 19.9m-2.2.3c-6-.5-13.1-1.5-20.4-1.3m22.1.5c-6-.4-13.2 0-19.4.3m-.9.1c1.3-6.8-1-12.6-1-21m1.2 21.1c.2-6.5.7-13.1.3-20.2M130.1 70c3.2 1.3 6.8.2 21.8 0m-22.2 0c6.2.6 12.3.8 20 0m2 0c.3 8.6-2.7 15.5-2.3 19.8m.6-19.3c1 6.5 0 10.8-.4 18.8m1.6.8a56 56 0 00-22.8.3m21.3.3c-4.3-1.4-10.6.3-20.5-1.3m.4.5c-.2-8.2-.3-15 1.3-20.1m0 19.2a71.3 71.3 0 01-.8-19.8M130.9 109.8c2.9-1.1 6.2 2 17.2-.7m-18 .1c6.7.6 16.2.8 20.3 1.2m.5-.5c.6 6.6-.8 15.4.5 22m-.8-22.8c-1 7 .3 12.3-.1 21.9m.3-.6c-6.8.6-14.2-2.5-21.3.3m20.5.1c-7.8-.4-14.6-.1-19.7-.7m.1 1.1c-.7-9.2-.4-16.2-1-21m1.1 20c-.5-6.2-1-13.5-.2-19.4M8.3 90.3c9.6 1.4 14 .2 20.8-1.8m-18.8 1.3c5.5.3 9.3 0 20.2.4m1.2 1.5c-.2 1.6-3.2 10.1-2.8 19.2M30.4 90c.2 7-1 16.4-.1 20.9m-2.3-.6c-4-1.2-12.8-1.1-18-1m20.9 1c-6.4-1.2-13.8-.5-20-1m-.9.3c-1.2-5.2-.2-12.2-.6-20.4m0 21.4c-.3-8.9.6-16.3-.3-20.1" stroke="#000" fill="none" stroke-linecap="round"/><g stroke-linecap="round"><path d="M8.5 129.2l23.2 1.3-2.8 18.1-17.8 2.1" stroke-width="0"/><path d="M9.8 129.4c4-1 12.5-1.4 19.3 2.4M9.2 129c5.8 1.8 11.2 1.4 21.2 1.6m-.5 1c-.5 4 1.2 10.4 2 17.8M29 129.6c1.7 6.7 1.6 11.6 1.9 20.6m-.6.2a53 53 0 00-19.7.9m20.1-1.8c-6.8.5-12.9.8-20.7 1m1.1-.7c-2.3-7-2.3-15-1-19m0 19.3c.5-7.8 0-14.6.6-20" stroke="#000" fill="none"/></g><path d="M30.3 91.3c8.4-2 14.5-2 18.2-2.3m-18.7 1.8c7.6-1.3 14.6-.4 20.4-1.2m1.5 2c-3.4 2.2 0 7.7-.8 20.3M50 90.4c-.7 6 .7 14.4.9 20m-.6.5c-6.9-2-12.7-1-21-.7m21 .5c-8.9-1-15.8.4-21-.6m.3-1.3c.9-4.8.1-11-.4-17m1.4 17.4c-1-6-.7-13.7-.1-18.7M29.4 128.5c3.3 3.2 7.2.6 22.4.7m-22.8.6c8 .3 14 .7 21.6-.1m1-.3c-1.3 8.3-.1 15.6-2.2 20m.2-18.7c1.5 7 1 14.7.6 18.9m.2 1.6c-5.4-3.1-9.7-.4-19.1-.8m18.2 0c-5.8.4-11.7-.2-19 .2m-.7-1.7c.3-5.9-.5-10.4 1-17.5m-.7 19.3c-.5-6.3.1-11.7 0-21.5M71.3 91.5c2-1.3 5.8-3 17.7 0M70.7 90c3.4-.4 9 .3 18.8-.4m2-1.4c-2.8 10.6-2.5 17 .4 23m-1.5-21.9c-1.1 8 0 14.7 0 20.6m.5-.5c-6 0-9.3.1-20.7 2.3m20.5-2.5c-7.4.8-12.3.3-20.6.7m-1.3.7c1-7.4.6-14.6 3-19.8m-2.6 18.8c1-4.6 0-8.8 1.3-18.7M68.5 128.4c10.1-.2 14.4 3.4 20.7 1.9m-19.4.5c6.3-.2 13 0 19.9-.5m-.3 0c1.7 8 2.4 13 0 20.9m1.3-20.3c-.3 6.9.1 13.9-1.1 18.3m1.6.2c-10 .2-14 2-20.8.8m20-.2c-5.8.2-12.4.4-19.8 0m-1.7.1C68.7 143 70 138 71.4 130m-.7 19.8c-.5-6.4 0-13.7-1.5-20.1M110 89c6.4-.6 10.5 3 20 1.5m-20-1.1c5.4-.3 10.5.4 20 1m0 1.5a31.3 31.3 0 01-.2 18.2m.8-19.1c0 4.9-1.7 10.5-1.3 19.5m.8 1c-5.4-.4-10.2-3-19.7-2.2m20.3 1.4c-7.3-1-11.5-1.5-21.3-.4m.5-1c-1.5-5.8-1.6-10-.1-19.9m-.7 20.1c2-4.4 1.2-8.4.1-20.5M108.4 131.7a47.8 47.8 0 0121.9-1.5m-19.5-.2c4 .4 8.7-.3 19.5.5m0 .6c1.2 6.6-.7 10.1.9 20.2m-.3-20.8c-.5 4.7-.8 7.6-1.7 19.9m.2-2.4c-6.2 2.8-10.8 2.5-19.2 2m19.8.7c-7.4-.5-14.8 0-20-.5m.1-1.4c-.8-5.9.7-11.9-.2-17.8m-.2 19.3c.6-6 .3-14.2-.1-19.4" stroke="#000" fill="none" stroke-linecap="round"/><path d="M91 91.4c5-2.5 14.1.2 17.9-1.2m-19-.8c6.2.5 11.6.3 19.7 1.5m1.9-2.6a46.8 46.8 0 00-.3 22.8m-2-20.1c1 6 1.5 14 1.1 18.2m-2.2 1.4c-5.3-2.6-11.4-2.5-19.4-2.6m22.1 2.9c-6.9-1.8-13.2-.8-20.2-.5m-.9-1.5c.7-4-.6-9.7-1.3-17.6m1.7 19.3c.5-7.4-.4-12.9-.3-20.2M91.7 128.1c2.8 3.8 8.4 2.3 18.5.4M90 130.4c4.5 0 7.8-.3 20.5-.4m.6 1.4c.7 5.6-1.8 15 .2 16.8m-.8-17.7c.6 5-.8 9.3-.1 19.7m-2.4-.6c-3.6 1.6-10.3.6-18 2m20.7-1.3c-5.7.1-10.2-.4-20.5.3m-1.4-1.3c1.5-4.3 2.7-11 2.2-18.7m-.7 19.7c.3-6.5-1.2-13.3.6-20M129 91.2c5-1 14-1.1 21.5-2.4m-21.1 1.9c6.5.2 14-.8 21 0m1.5 1c-2.8 5.7-2.3 9.2-1.8 18.2m.9-19c-1 2.7-1.4 7.5-.5 18.2m1-.2c-7.1-.5-16.3 1.5-22.2 1m21.4-.7c-7.6 2-14.8.3-20.4.7m-1-1.6c0-5.2 1.7-8.8.1-19.8m.1 22.4c0-5.2.4-10.5-.5-21M128.1 129c8.1 0 11.1 1 20.4-1m-18.1 2.4c5.8-.7 11.2 0 19.6.4m1.4 1c-2 3-.2 10.2-3.2 17.5m2.3-18.3c-.1 6-1.1 14.1-.3 19.2m-.6.5c-5.5-.5-13.8-.9-18-1.6m18.7 1c-6.6.6-13.9.2-19.7-.2m-1.3.3c1.5-3.7.6-8.9 1.3-20m-.3 20.6c-.2-9-.6-14.8 0-21.3M51.5 89.2c3-.3 5.5-.3 20-.6m-21.5 1c6.1.8 13.3-.2 19.6 1m-1.4-2c3.6 8 2.8 18.6 3 22m-1.9-21.4c1.4 7.9 1.7 14.9.6 19.9m-.5 0c-4 1-8 1.2-17.7 1.1m17.5-.7c-7 1.5-15.2.7-19.3.8m.7-.5c-.7-6.4-1.3-10 .2-20.9M49.6 110c.2-5.7.8-9 1.3-19.1M49 131.8c4.6-1.4 10-3.1 19-2.2m-17.6 1l20.4-1m1-.2c-2.3 8-.4 11.3-2.5 22m1.7-21.2c-1.3 6.9-.5 15.7-.8 20.4m.5.7c-5.7-1.1-11.5.3-21.6-.6m21-.2c-5.4-.5-11.7.2-20.2-1m.3 1.3c1.3-7 1-12.5 0-19.4m.6 18.7c-1.6-6 0-10.8-1.3-20.8" stroke="#000" fill="none" stroke-linecap="round"/></svg>