<?xml version="1.0" standalone="no"?>
<!DOCTYPE svg PUBLIC "-//W3C//DTD SVG 20010904//EN"
 "http://www.w3.org/TR/2001/REC-SVG-20010904/DTD/svg10.dtd">
<svg version="1.0" xmlns="http://www.w3.org/2000/svg"
 width="320.000000pt" height="320.000000pt" viewBox="0 0 320.000000 320.000000"
 preserveAspectRatio="xMidYMid meet">
<metadata>
Created by potrace 1.14, written by Peter Selinger 2001-2017
</metadata>
<g transform="translate(0.000000,320.000000) scale(0.100000,-0.100000)"
fill="#000000" stroke="none">
<path d="M535 3032 c-50 -19 -325 -30 -325 -13 0 6 -4 11 -8 11 -5 0 -9 -89
-10 -197 -2 -108 -6 -200 -10 -203 -9 -6 -9 -460 0 -460 10 0 4 -334 -7 -342
-6 -4 -5 -25 2 -55 21 -87 26 -252 9 -307 -8 -27 -21 -53 -28 -58 -10 -6 -10
-10 2 -18 13 -8 15 -41 12 -211 -2 -135 1 -205 8 -209 20 -12 22 -169 5 -260
-20 -105 -20 -102 -6 -285 7 -82 12 -167 11 -188 -2 -60 17 -71 99 -58 83 13
298 15 303 2 2 -4 86 -5 186 -2 101 3 186 3 189 -1 6 -11 463 -7 463 4 0 4 75
8 166 8 156 0 168 -1 185 -21 16 -18 22 -19 76 -10 124 22 321 29 543 21 138
-5 226 -5 228 1 4 9 204 5 327 -6 l50 -5 1 153 c0 83 6 175 13 202 9 37 11
148 7 415 -3 308 -2 369 11 393 15 30 9 52 -8 27 -6 -10 -7 -5 -3 18 4 21 3
32 -5 32 -17 0 -13 83 9 215 29 170 26 245 -25 538 -3 19 0 27 10 27 8 0 15 5
15 10 0 6 -5 10 -11 10 -8 0 -9 11 -5 33 38 175 46 353 20 407 -14 27 -16 56
-12 176 3 79 1 144 -3 144 -5 0 -9 9 -9 20 0 11 5 20 10 20 6 0 10 10 10 21 0
20 -4 21 -47 15 -110 -14 -309 -27 -335 -22 -15 3 -114 1 -219 -5 -154 -8
-194 -7 -201 3 -6 10 -10 10 -18 -2 -13 -20 -297 -21 -355 -1 -28 10 -40 11
-43 2 -2 -6 -12 -11 -22 -11 -10 0 -20 -5 -22 -11 -3 -8 -30 -9 -93 -3 l-90 8
100 13 c54 8 101 16 104 18 15 16 -23 15 -139 -4 -144 -23 -200 -26 -200 -11
0 6 -13 10 -30 10 -16 0 -30 5 -30 10 0 6 -4 10 -10 10 -5 0 -10 -6 -10 -14 0
-11 -25 -16 -107 -21 -136 -10 -234 -1 -250 22 -12 15 -14 15 -32 -5 -17 -21
-27 -22 -156 -22 -86 0 -152 5 -173 13 -28 10 -36 10 -39 0 -5 -15 -43 -18
-43 -3 0 6 5 10 10 10 6 0 10 5 10 10 0 12 -5 12 -55 -8z m15 -32 c0 -5 -6
-10 -14 -10 -8 0 -18 5 -21 10 -3 6 3 10 14 10 12 0 21 -4 21 -10z m2439 -27
c0 -21 -4 -56 -8 -78 l-9 -40 -1 55 c-1 30 -4 65 -7 78 -5 16 -2 22 10 22 12
0 16 -9 15 -37z m-2752 11 c-3 -3 -12 -4 -19 -1 -8 3 -5 6 6 6 11 1 17 -2 13
-5z m275 -10 c30 -4 49 -11 53 -22 13 -33 18 -276 6 -305 l-11 -28 -154 3
c-85 2 -157 5 -160 9 -12 12 -28 204 -21 264 7 64 7 65 43 74 76 20 109 21
244 5z m206 0 c67 -20 239 -14 253 7 4 8 10 11 13 8 8 -8 -22 -331 -32 -341
-13 -13 -169 -29 -243 -26 l-64 3 -18 70 c-14 55 -17 91 -12 168 9 142 6 139
103 111z m150 9 c-27 -2 -69 -2 -95 0 -27 2 -5 3 47 3 52 0 74 -1 48 -3z m501
-9 c6 -6 20 -163 20 -242 1 -51 -3 -78 -13 -88 -12 -11 -50 -14 -179 -14 -141
0 -166 2 -171 16 -8 21 -8 171 1 268 l6 77 166 -7 c91 -3 168 -8 170 -10z m51
-16 c0 -5 -4 -8 -10 -8 -5 0 -10 10 -10 23 0 18 2 19 10 7 5 -8 10 -18 10 -22z
m295 13 l60 -6 3 -115 c2 -63 0 -138 -3 -166 l-6 -52 -101 -12 c-104 -13 -182
-10 -231 9 l-28 11 7 122 c9 161 21 210 54 219 24 7 124 3 245 -10z m455 2
c10 -9 5 -315 -5 -322 -5 -4 -59 -15 -120 -24 -124 -18 -195 -14 -195 12 0 9
-7 79 -15 156 -8 77 -13 152 -10 166 l6 26 167 -5 c92 -2 169 -7 172 -9z m386
2 c-3 -9 1 -47 9 -86 8 -39 15 -108 15 -154 l0 -84 -42 -5 c-24 -3 -74 -8
-113 -11 -38 -3 -95 -11 -126 -17 -85 -17 -85 -17 -81 189 l4 172 106 4 c59 1
136 4 171 5 53 2 62 0 57 -13z m41 -22 c-3 -10 -5 -4 -5 12 0 17 2 24 5 18 2
-7 2 -21 0 -30z m410 -45 c-2 -13 -4 -5 -4 17 -1 22 1 32 4 23 2 -10 2 -28 0
-40z m-2792 -222 c5 -41 3 -56 -4 -52 -6 4 -11 32 -11 63 0 70 5 66 15 -11z
m1602 -13 c-3 -10 -5 -2 -5 17 0 19 2 27 5 18 2 -10 2 -26 0 -35z m-1200 -35
c-3 -7 -5 -2 -5 12 0 14 2 19 5 13 2 -7 2 -19 0 -25z m2380 10 c-3 -8 -6 -5
-6 6 -1 11 2 17 5 13 3 -3 4 -12 1 -19z m-430 -24 c-3 -3 -12 -4 -19 -1 -8 3
-5 6 6 6 11 1 17 -2 13 -5z m-1177 -24 c0 -5 -15 -10 -32 -10 -25 0 -29 3 -18
10 20 13 50 13 50 0z m-74 -21 l77 -12 -6 -160 c-4 -96 -10 -164 -17 -171 -13
-13 -170 -14 -271 -2 l-66 7 -6 52 c-4 29 -9 102 -13 163 l-7 111 39 11 c54
14 178 14 270 1z m823 5 l31 -6 0 -128 c0 -151 -8 -217 -26 -224 -7 -3 -76 -8
-154 -12 -137 -7 -140 -7 -140 14 0 11 -4 22 -9 24 -5 2 -12 71 -16 154 l-7
151 53 16 c55 16 211 22 268 11z m890 -71 c-2 -128 -16 -153 -18 -30 -1 65 3
107 9 107 6 0 10 -32 9 -77z m-2470 58 c19 -12 21 -248 3 -308 l-13 -43 -57 0
c-42 1 -241 23 -259 29 -10 4 -14 88 -8 192 7 120 8 128 29 132 42 8 291 7
305 -2z m1759 2 c-10 -2 -26 -2 -35 0 -10 3 -2 5 17 5 19 0 27 -2 18 -5z
m-2109 -75 c-2 -77 -6 -69 -11 20 -2 28 0 52 5 52 4 0 6 -33 6 -72z m2777 59
c10 -10 16 -262 7 -302 l-9 -40 -64 3 c-36 2 -110 9 -165 15 l-100 12 -7 45
c-3 25 -7 99 -7 164 l-1 119 171 -5 c93 -3 172 -8 175 -11z m-1209 -29 c-3 -7
-5 -2 -5 12 0 14 2 19 5 13 2 -7 2 -19 0 -25z m-350 -70 c-3 -7 -5 -2 -5 12 0
14 2 19 5 13 2 -7 2 -19 0 -25z m1198 -130 c5 -54 3 -78 -4 -78 -7 0 -11 30
-11 82 0 45 2 79 4 77 2 -2 7 -39 11 -81z m-2418 -60 c-2 -13 -4 -3 -4 22 0
25 2 35 4 23 2 -13 2 -33 0 -45z m1210 0 c-2 -13 -4 -3 -4 22 0 25 2 35 4 23
2 -13 2 -33 0 -45z m1150 -34 c-3 -3 -12 -4 -19 -1 -8 3 -5 6 6 6 11 1 17 -2
13 -5z m-64 -11 c-13 -2 -35 -2 -50 0 -16 2 -5 4 22 4 28 0 40 -2 28 -4z m127
-3 c0 -5 -4 -10 -10 -10 -5 0 -10 5 -10 10 0 6 5 10 10 10 6 0 10 -4 10 -10z
m-2415 -11 c11 -16 1 -19 -13 -3 -7 8 -8 14 -3 14 5 0 13 -5 16 -11z m83 -6
c-10 -2 -28 -2 -40 0 -13 2 -5 4 17 4 22 1 32 -1 23 -4z m692 -3 c0 -6 -23 -9
-52 -9 l-53 2 40 7 c60 11 65 11 65 0z m1598 -107 l-1 -118 -10 108 c-5 60
-14 107 -20 107 -6 0 -8 -27 -3 -77 3 -43 9 -119 13 -169 l6 -90 -29 -11 c-56
-21 -169 -24 -250 -6 l-77 17 6 144 c8 174 12 181 117 182 36 1 103 7 150 14
47 8 88 14 93 15 4 1 6 -52 5 -116z m-430 100 c-10 -2 -26 -2 -35 0 -10 3 -2
5 17 5 19 0 27 -2 18 -5z m-787 -24 c5 -8 9 -82 9 -166 l0 -152 -52 -10 c-99
-20 -175 -27 -231 -21 -31 3 -59 9 -62 12 -3 3 -11 78 -17 166 -9 134 -9 162
3 176 12 15 35 16 177 13 128 -3 166 -7 173 -18z m1560 10 c27 -9 41 -20 51
-43 16 -39 16 -225 -1 -283 l-12 -43 -118 0 c-152 0 -229 15 -237 45 -3 12 -4
88 -2 168 l3 146 40 6 c22 2 51 6 65 9 56 8 175 5 211 -5z m-2405 -10 c24 -6
47 -15 50 -20 7 -11 -7 -295 -16 -309 -4 -6 -69 -13 -167 -17 l-160 -6 -6 33
c-9 41 -9 213 -1 273 6 42 9 46 38 50 69 9 220 6 262 -4z m289 -4 c66 -8 131
-15 144 -15 l24 0 -5 -155 c-3 -86 -8 -158 -10 -160 -6 -6 -339 -7 -345 -1
-25 24 6 309 36 334 18 15 9 15 156 -3z m962 -159 c-4 -131 -3 -176 6 -179 7
-2 -28 -2 -78 1 -49 2 -123 -1 -162 -7 -79 -12 -119 -1 -107 29 3 8 8 86 11
173 l6 157 165 0 165 0 -6 -174z m391 159 c1 -1 3 -67 5 -146 2 -165 -9 -216
-47 -203 -12 4 -79 8 -151 9 l-130 1 -13 80 c-7 44 -11 112 -8 154 9 127 -8
116 179 112 89 -2 163 -5 165 -7z m-741 -128 c-2 -23 -3 -1 -3 48 0 50 1 68 3
42 2 -26 2 -67 0 -90z m1602 -179 c1 -42 -2 -48 -20 -48 -16 0 -20 4 -14 18 3
9 9 39 12 67 8 60 21 37 22 -37z m-1659 -38 c0 -5 -21 -9 -47 -9 l-48 2 40 7
c22 4 43 8 48 9 4 0 7 -3 7 -9z m910 0 c22 -7 21 -8 -12 -9 -21 -1 -38 4 -38
9 0 11 14 11 50 0z m-1792 -27 c-21 -2 -55 -2 -75 0 -21 2 -4 4 37 4 41 0 58
-2 38 -4z m1282 -13 c0 -6 -35 -9 -87 -9 -65 1 -79 4 -53 9 54 11 140 11 140
0z m-1200 -17 c8 -7 6 -265 -2 -294 -11 -39 -93 -59 -242 -59 l-117 0 5 33
c13 82 16 187 6 242 -6 39 -6 61 0 63 6 2 10 9 10 16 0 9 42 11 168 8 92 -2
169 -6 172 -9z m1000 -3 c25 -5 79 -9 121 -9 70 -1 77 -3 82 -23 3 -12 3 -88
0 -170 l-6 -148 -36 0 c-47 0 -248 18 -284 26 l-29 6 4 159 c2 128 6 162 18
170 14 9 27 8 130 -11z m1419 5 c2 -2 6 -45 9 -95 5 -95 -12 -223 -32 -238 -6
-5 -79 -6 -162 -4 l-151 4 -6 137 c-2 75 -10 149 -16 164 -6 16 -8 33 -5 39 5
8 62 9 183 4 96 -4 177 -9 180 -11z m-2349 -175 c0 -153 -2 -180 -15 -180 -12
0 -15 18 -15 103 0 132 10 257 21 257 5 0 9 -81 9 -180z m2390 155 c0 -14 -4
-25 -10 -25 -5 0 -10 11 -10 25 0 14 5 25 10 25 6 0 10 -11 10 -25z m-401
-194 c1 -123 -6 -95 -12 49 -3 81 -2 109 3 80 5 -25 9 -83 9 -129z m-454 -99
c-12 -79 -17 -35 -8 70 8 98 8 100 11 38 2 -36 0 -85 -3 -108z m396 -14 l-11
-33 5 40 c3 22 6 56 7 75 1 33 2 33 5 -7 2 -22 -1 -56 -6 -75z m-342 35 c1
-13 -3 -23 -9 -23 -5 0 -10 19 -9 43 0 32 2 37 9 22 5 -11 9 -30 9 -42z m-442
-45 c-2 -13 -4 -5 -4 17 -1 22 1 32 4 23 2 -10 2 -28 0 -40z m660 -49 l121
-12 6 -30 c8 -38 8 -154 0 -239 l-7 -66 -51 -9 c-57 -10 -266 4 -266 18 0 5
-6 9 -14 9 -16 0 -32 228 -21 305 l8 47 51 -6 c28 -3 106 -11 173 -17z m-1457
-155 c0 -138 -3 -168 -16 -181 -12 -13 -45 -17 -144 -21 -164 -6 -196 0 -205
36 -13 50 -6 229 9 267 8 19 16 35 18 36 47 12 184 27 251 28 l87 1 0 -166z
m353 156 c11 0 24 -14 33 -37 13 -29 14 -60 9 -164 l-7 -127 -30 -6 c-39 -8
-266 -8 -295 0 -20 5 -22 14 -28 132 -7 109 -5 130 10 158 16 31 18 32 118 42
56 5 118 8 137 6 19 -2 43 -4 53 -4z m321 1 c43 -5 81 -14 85 -20 4 -6 13 -66
20 -134 6 -67 14 -133 16 -147 4 -25 2 -26 -108 -43 -62 -9 -142 -20 -178 -23
l-66 -6 -6 144 c-7 141 -1 191 26 226 11 14 92 15 211 3z m-1147 -11 l52 0 7
-47 c8 -52 8 -62 -3 -203 l-8 -95 -45 5 c-25 3 -105 4 -177 2 -157 -3 -141
-24 -145 190 l-3 147 85 4 c47 2 108 2 135 1 28 -2 73 -4 102 -4z m1630 4 c21
-6 22 -10 20 -138 -1 -72 1 -143 5 -158 7 -24 5 -27 -23 -33 -17 -4 -98 -4
-180 0 l-149 7 0 137 c0 175 1 179 54 184 71 6 250 7 273 1z m817 0 c38 -6 46
-10 41 -23 -4 -9 -9 -84 -12 -167 l-6 -151 -167 -7 c-93 -3 -175 -4 -183 -1
-11 5 -12 15 -4 58 5 29 7 98 3 155 -7 116 -2 128 55 135 58 7 224 7 273 1z
m-777 -211 c-2 -21 -4 -6 -4 32 0 39 2 55 4 38 2 -18 2 -50 0 -70z m424 -78
l-9 -40 -1 50 c0 28 3 75 7 105 l7 55 3 -65 c1 -36 -1 -83 -7 -105z m-1416
-70 c6 -2 -29 -4 -77 -4 -49 -1 -88 3 -88 7 0 8 141 5 165 -3z m754 10 c-10
-9 -109 -13 -114 -4 -4 5 20 9 56 9 34 0 60 -2 58 -5z m221 -5 c0 -5 -15 -10
-32 -9 -31 1 -32 1 -8 9 35 11 40 11 40 0z m713 -7 c-7 -2 -19 -2 -25 0 -7 3
-2 5 12 5 14 0 19 -2 13 -5z m-1893 -13 c0 -5 -7 -7 -15 -4 -8 4 -15 8 -15 10
0 2 7 4 15 4 8 0 15 -4 15 -10z m-416 -22 c25 -26 22 -138 -9 -325 -4 -24 -2
-32 12 -36 10 -3 -8 -5 -39 -6 -31 0 -69 4 -85 10 -15 6 -73 13 -128 15 l-100
4 -3 47 c-2 27 -1 107 3 178 l7 130 163 0 c136 -1 165 -4 179 -17z m1754 14
c8 -6 -8 -12 -43 -19 -43 -7 -55 -7 -55 3 0 11 21 18 70 22 8 1 21 -2 28 -6z
m-948 -36 c5 -16 10 -91 10 -167 0 -132 -1 -139 -20 -139 -11 0 -20 -4 -20
-10 0 -5 9 -10 20 -10 11 0 20 -3 20 -7 0 -5 -53 -8 -117 -8 -65 0 -136 -3
-158 -7 -22 -4 -46 -4 -54 1 -21 13 -30 84 -31 233 l0 137 43 3 c23 2 99 3
169 3 l128 0 10 -29z m93 27 c-7 -2 -21 -2 -30 0 -10 3 -4 5 12 5 17 0 24 -2
18 -5z m694 -4 c22 -1 22 -4 25 -165 l3 -164 -75 -17 c-97 -23 -233 -23 -258
0 -23 21 -36 22 -28 2 3 -8 0 -15 -6 -15 -17 0 -6 332 13 354 12 15 30 16 159
11 80 -3 155 -6 167 -6z m835 -137 c-1 -81 -5 -166 -8 -189 l-5 -43 -62 1 -62
1 53 10 c28 5 52 14 52 20 0 6 -11 8 -27 4 -16 -4 -92 -10 -170 -13 -118 -5
-143 -3 -143 8 0 72 -11 303 -16 310 -3 5 0 15 7 22 9 10 60 13 198 15 l186 1
-3 -147z m-1575 -69 c-2 -21 -4 -6 -4 32 0 39 2 55 4 38 2 -18 2 -50 0 -70z
m343 -140 c-11 -17 -11 -17 -6 0 3 10 7 28 7 40 2 22 2 22 6 0 2 -12 -1 -30
-7 -40z m817 25 c-3 -8 -6 -5 -6 6 -1 11 2 17 5 13 3 -3 4 -12 1 -19z m-874
-45 c-7 -2 -19 -2 -25 0 -7 3 -2 5 12 5 14 0 19 -2 13 -5z m475 0 c-10 -2 -28
-2 -40 0 -13 2 -5 4 17 4 22 1 32 -1 23 -4z m-1222 -46 c23 -22 32 -237 13
-310 l-10 -42 -158 -3 -159 -3 -11 63 c-14 73 -19 251 -9 288 l7 25 161 -6
c88 -3 163 -8 166 -12z m822 -130 c3 -78 0 -149 -7 -173 l-11 -41 -67 -6 c-38
-4 -114 -7 -169 -7 -97 0 -102 1 -108 23 -8 29 -8 251 0 300 l7 37 91 1 c50 1
125 4 166 8 41 3 79 3 85 -2 5 -4 11 -67 13 -140z m303 143 c29 -6 56 -15 60
-22 4 -6 14 -8 23 -5 14 6 16 -12 16 -168 l0 -175 -67 0 c-38 0 -122 -5 -187
-10 -113 -10 -143 -8 -121 8 6 4 10 30 10 57 0 28 2 112 3 188 l2 137 104 0
c57 0 127 -5 157 -10z m495 -146 c-3 -86 -11 -164 -16 -174 -20 -37 -96 -55
-227 -55 -114 0 -151 7 -128 23 6 4 11 81 13 172 2 91 5 166 6 167 6 6 295 4
319 -2 21 -6 27 -4 27 9 0 9 3 16 7 16 3 0 3 -70 -1 -156z m-1222 140 c24 -9
29 -83 16 -230 l-13 -136 -163 4 c-90 2 -167 8 -172 13 -4 6 -5 83 -2 173 4
130 8 165 20 172 16 10 288 14 314 4z m1575 -1 l53 -6 -6 -116 c-4 -64 -14
-146 -23 -183 -14 -57 -20 -68 -37 -68 -32 0 -287 28 -291 32 -6 6 -7 45 -6
196 l1 152 128 0 c70 0 151 -3 181 -7z m-2349 -343 c0 -11 -4 -20 -9 -20 -5 0
-7 9 -4 20 3 11 7 20 9 20 2 0 4 -9 4 -20z m2396 -17 c-10 -10 -19 5 -10 18 6
11 8 11 12 0 2 -7 1 -15 -2 -18z m-416 -8 c0 -16 -9 -19 -35 -9 -13 5 -14 8
-3 15 20 13 38 11 38 -6z m-1415 -15 c49 -7 49 -7 -25 -9 -41 0 -82 4 -90 9
-18 12 40 12 115 0z"/>
</g>
</svg>
