<svg version="1.0" xmlns="http://www.w3.org/2000/svg" width="426.667" height="426.667" viewBox="0 0 320 320"><path d="M53.5 16.8c-5 1.9-32.5 3-32.5 1.3 0-.6-.4-1.1-.8-1.1-.5 0-.9 8.9-1 19.7-.2 10.8-.6 20-1 20.3-.9.6-.9 46 0 46 1 0 .4 33.4-.7 34.2-.6.4-.5 2.5.2 5.5 2.1 8.7 2.6 25.2.9 30.7-.8 2.7-2.1 5.3-2.8 5.8-1 .6-1 1 .2 1.8 1.3.8 1.5 4.1 1.2 21.1-.2 13.5.1 20.5.8 20.9 2 1.2 2.2 16.9.5 26-2 10.5-2 10.2-.6 28.5.7 8.2 1.2 16.7 1.1 18.8-.2 6 1.7 7.1 9.9 5.8 8.3-1.3 29.8-1.5 30.3-.2.2.4 8.6.5 18.6.2 10.1-.3 18.6-.3 18.9.1.6 1.1 46.3.7 46.3-.4 0-.4 7.5-.8 16.6-.8 15.6 0 16.8.1 18.5 2.1 1.6 1.8 2.2 1.9 7.6 1 12.4-2.2 32.1-2.9 54.3-2.1 13.8.5 22.6.5 22.8-.1.4-.9 20.4-.5 32.7.6l5 .5.1-15.3c0-8.3.6-17.5 1.3-20.2.9-3.7 1.1-14.8.7-41.5-.3-30.8-.2-36.9 1.1-39.3 1.5-3 .9-5.2-.8-2.7-.6 1-.7.5-.3-1.8.4-2.1.3-3.2-.5-3.2-1.7 0-1.3-8.3.9-21.5 2.9-17 2.6-24.5-2.5-53.8-.3-1.9 0-2.7 1-2.7.8 0 1.5-.5 1.5-1 0-.6-.5-1-1.1-1-.8 0-.9-1.1-.5-3.3 3.8-17.5 4.6-35.3 2-40.7-1.4-2.7-1.6-5.6-1.2-17.6.3-7.9.1-14.4-.3-14.4-.5 0-.9-.9-.9-2s.5-2 1-2c.6 0 1-1 1-2.1 0-2-.4-2.1-4.7-1.5-11 1.4-30.9 2.7-33.5 2.2-1.5-.3-11.4-.1-21.9.5-15.4.8-19.4.7-20.1-.3-.6-1-1-1-1.8.2-1.3 2-29.7 2.1-35.5.1-2.8-1-4-1.1-4.3-.2-.2.6-1.2 1.1-2.2 1.1-1 0-2 .5-2.2 1.1-.3.8-3 .9-9.3.3l-9-.8 10-1.3c5.4-.8 10.1-1.6 10.4-1.8 1.5-1.6-2.3-1.5-13.9.4-14.4 2.3-20 2.6-20 1.1 0-.6-1.3-1-3-1-1.6 0-3-.5-3-1 0-.6-.4-1-1-1-.5 0-1 .6-1 1.4 0 1.1-2.5 1.6-10.7 2.1-13.6 1-23.4.1-25-2.2-1.2-1.5-1.4-1.5-3.2.5-1.7 2.1-2.7 2.2-15.6 2.2-8.6 0-15.2-.5-17.3-1.3-2.8-1-3.6-1-3.9 0-.5 1.5-4.3 1.8-4.3.3 0-.6.5-1 1-1 .6 0 1-.5 1-1 0-1.2-.5-1.2-5.5.8zM55 20c0 .5-.6 1-1.4 1-.8 0-1.8-.5-2.1-1-.3-.6.3-1 1.4-1 1.2 0 2.1.4 2.1 1zm243.9 2.7c0 2.1-.4 5.6-.8 7.8l-.9 4-.1-5.5c-.1-3-.4-6.5-.7-7.8-.5-1.6-.2-2.2 1-2.2s1.6.9 1.5 3.7zM23.7 21.6c-.3.3-1.2.4-1.9.1-.8-.3-.5-.6.6-.6 1.1-.1 1.7.2 1.3.5zm27.5 1c3 .4 4.9 1.1 5.3 2.2 1.3 3.3 1.8 27.6.6 30.5L56 58.1l-15.4-.3c-8.5-.2-15.7-.5-16-.9-1.2-1.2-2.8-20.4-2.1-26.4.7-6.4.7-6.5 4.3-7.4 7.6-2 10.9-2.1 24.4-.5zm20.6 0c6.7 2 23.9 1.4 25.3-.7.4-.8 1-1.1 1.3-.8.8.8-2.2 33.1-3.2 34.1-1.3 1.3-16.9 2.9-24.3 2.6l-6.4-.3-1.8-7c-1.4-5.5-1.7-9.1-1.2-16.8.9-14.2.6-13.9 10.3-11.1zm15-.9c-2.7.2-6.9.2-9.5 0-2.7-.2-.5-.3 4.7-.3s7.4.1 4.8.3zm50.1.9c.6.6 2 16.3 2 24.2.1 5.1-.3 7.8-1.3 8.8-1.2 1.1-5 1.4-17.9 1.4-14.1 0-16.6-.2-17.1-1.6-.8-2.1-.8-17.1.1-26.8l.6-7.7 16.6.7c9.1.3 16.8.8 17 1zm5.1 1.6c0 .5-.4.8-1 .8-.5 0-1-1-1-2.3 0-1.8.2-1.9 1-.7.5.8 1 1.8 1 2.2zm29.5-1.3 6 .6.3 11.5c.2 6.3 0 13.8-.3 16.6l-.6 5.2-10.1 1.2c-10.4 1.3-18.2 1-23.1-.9l-2.8-1.1.7-12.2c.9-16.1 2.1-21 5.4-21.9 2.4-.7 12.4-.3 24.5 1zm45.5-.2c1 .9.5 31.5-.5 32.2-.5.4-5.9 1.5-12 2.4-12.4 1.8-19.5 1.4-19.5-1.2 0-.9-.7-7.9-1.5-15.6-.8-7.7-1.3-15.2-1-16.6l.6-2.6 16.7.5c9.2.2 16.9.7 17.2.9zm38.6-.2c-.3.9.1 4.7.9 8.6.8 3.9 1.5 10.8 1.5 15.4v8.4l-4.2.5c-2.4.3-7.4.8-11.3 1.1-3.8.3-9.5 1.1-12.6 1.7-8.5 1.7-8.5 1.7-8.1-18.9l.4-17.2 10.6-.4c5.9-.1 13.6-.4 17.1-.5 5.3-.2 6.2 0 5.7 1.3zm4.1 2.2c-.3 1-.5.4-.5-1.2 0-1.7.2-2.4.5-1.8.2.7.2 2.1 0 3zm41 4.5c-.2 1.3-.4.5-.4-1.7-.1-2.2.1-3.2.4-2.3.2 1 .2 2.8 0 4zM21.5 51.4c.5 4.1.3 5.6-.4 5.2-.6-.4-1.1-3.2-1.1-6.3 0-7 .5-6.6 1.5 1.1zm160.2 1.3c-.3 1-.5.2-.5-1.7s.2-2.7.5-1.8c.2 1 .2 2.6 0 3.5zm-120 3.5c-.3.7-.5.2-.5-1.2s.2-1.9.5-1.3c.2.7.2 1.9 0 2.5zm238-1c-.3.8-.6.5-.6-.6-.1-1.1.2-1.7.5-1.3.3.3.4 1.2.1 1.9zm-43 2.4c-.3.3-1.2.4-1.9.1-.8-.3-.5-.6.6-.6 1.1-.1 1.7.2 1.3.5zM139 60c0 .5-1.5 1-3.2 1-2.5 0-2.9-.3-1.8-1 2-1.3 5-1.3 5 0zm-7.4 2.1 7.7 1.2-.6 16c-.4 9.6-1 16.4-1.7 17.1-1.3 1.3-17 1.4-27.1.2l-6.6-.7-.6-5.2c-.4-2.9-.9-10.2-1.3-16.3l-.7-11.1 3.9-1.1c5.4-1.4 17.8-1.4 27-.1zm82.3-.5 3.1.6V75c0 15.1-.8 21.7-2.6 22.4-.7.3-7.6.8-15.4 1.2-13.7.7-14 .7-14-1.4 0-1.1-.4-2.2-.9-2.4-.5-.2-1.2-7.1-1.6-15.4l-.7-15.1 5.3-1.6c5.5-1.6 21.1-2.2 26.8-1.1zm89 7.1c-.2 12.8-1.6 15.3-1.8 3-.1-6.5.3-10.7.9-10.7.6 0 1 3.2.9 7.7zm-247-5.8c1.9 1.2 2.1 24.8.3 30.8L54.9 98h-5.7c-4.2-.1-24.1-2.3-25.9-2.9-1-.4-1.4-8.8-.8-19.2.7-12 .8-12.8 2.9-13.2 4.2-.8 29.1-.7 30.5.2zm175.9-.2c-1 .2-2.6.2-3.5 0-1-.3-.2-.5 1.7-.5s2.7.2 1.8.5zM20.9 70.2c-.2 7.7-.6 6.9-1.1-2-.2-2.8 0-5.2.5-5.2.4 0 .6 3.3.6 7.2zm277.7-5.9c1 1 1.6 26.2.7 30.2l-.9 4-6.4-.3c-3.6-.2-11-.9-16.5-1.5l-10-1.2-.7-4.5c-.3-2.5-.7-9.9-.7-16.4l-.1-11.9 17.1.5c9.3.3 17.2.8 17.5 1.1zm-120.9 2.9c-.3.7-.5.2-.5-1.2s.2-1.9.5-1.3c.2.7.2 1.9 0 2.5zm-35 7c-.3.7-.5.2-.5-1.2s.2-1.9.5-1.3c.2.7.2 1.9 0 2.5zm119.8 13c.5 5.4.3 7.8-.4 7.8s-1.1-3-1.1-8.2c0-4.5.2-7.9.4-7.7.2.2.7 3.9 1.1 8.1zm-241.8 6c-.2 1.3-.4.3-.4-2.2s.2-3.5.4-2.3c.2 1.3.2 3.3 0 4.5zm121 0c-.2 1.3-.4.3-.4-2.2s.2-3.5.4-2.3c.2 1.3.2 3.3 0 4.5zm115 3.4c-.3.3-1.2.4-1.9.1-.8-.3-.5-.6.6-.6 1.1-.1 1.7.2 1.3.5zm-6.4 1.1c-1.3.2-3.5.2-5 0-1.6-.2-.5-.4 2.2-.4 2.8 0 4 .2 2.8.4zm12.7.3c0 .5-.4 1-1 1-.5 0-1-.5-1-1 0-.6.5-1 1-1 .6 0 1 .4 1 1zM21.5 99.1c1.1 1.6.1 1.9-1.3.3-.7-.8-.8-1.4-.3-1.4s1.3.5 1.6 1.1zm8.3.6c-1 .2-2.8.2-4 0-1.3-.2-.5-.4 1.7-.4 2.2-.1 3.2.1 2.3.4zm69.2.3c0 .6-2.3.9-5.2.9l-5.3-.2 4-.7c6-1.1 6.5-1.1 6.5 0zm159.8 10.7-.1 11.8-1-10.8c-.5-6-1.4-10.7-2-10.7-.6 0-.8 2.7-.3 7.7.3 4.3.9 11.9 1.3 16.9l.6 9-2.9 1.1c-5.6 2.1-16.9 2.4-25 .6l-7.7-1.7.6-14.4c.8-17.4 1.2-18.1 11.7-18.2 3.6-.1 10.3-.7 15-1.4 4.7-.8 8.8-1.4 9.3-1.5.4-.1.6 5.2.5 11.6zm-43-10c-1 .2-2.6.2-3.5 0-1-.3-.2-.5 1.7-.5s2.7.2 1.8.5zm-78.7 2.4c.5.8.9 8.2.9 16.6v15.2l-5.2 1c-9.9 2-17.5 2.7-23.1 2.1-3.1-.3-5.9-.9-6.2-1.2-.3-.3-1.1-7.8-1.7-16.6-.9-13.4-.9-16.2.3-17.6 1.2-1.5 3.5-1.6 17.7-1.3 12.8.3 16.6.7 17.3 1.8zm156-1c2.7.9 4.1 2 5.1 4.3 1.6 3.9 1.6 22.5-.1 28.3l-1.2 4.3h-11.8c-15.2 0-22.9-1.5-23.7-4.5-.3-1.2-.4-8.8-.2-16.8l.3-14.6 4-.6c2.2-.2 5.1-.6 6.5-.9 5.6-.8 17.5-.5 21.1.5zm-240.5 1c2.4.6 4.7 1.5 5 2 .7 1.1-.7 29.5-1.6 30.9-.4.6-6.9 1.3-16.7 1.7l-16 .6-.6-3.3c-.9-4.1-.9-21.3-.1-27.3.6-4.2.9-4.6 3.8-5 6.9-.9 22-.6 26.2.4zm28.9.4c6.6.8 13.1 1.5 14.4 1.5h2.4l-.5 15.5c-.3 8.6-.8 15.8-1 16-.6.6-33.9.7-34.5.1-2.5-2.4.6-30.9 3.6-33.4 1.8-1.5.9-1.5 15.6.3zm96.2 15.9c-.4 13.1-.3 17.6.6 17.9.7.2-2.8.2-7.8-.1-4.9-.2-12.3.1-16.2.7-7.9 1.2-11.9.1-10.7-2.9.3-.8.8-8.6 1.1-17.3l.6-15.7h33l-.6 17.4zm39.1-15.9c.1.1.3 6.7.5 14.6.2 16.5-.9 21.6-4.7 20.3-1.2-.4-7.9-.8-15.1-.9l-13-.1-1.3-8c-.7-4.4-1.1-11.2-.8-15.4.9-12.7-.8-11.6 17.9-11.2 8.9.2 16.3.5 16.5.7zm-74.1 12.8c-.2 2.3-.3.1-.3-4.8 0-5 .1-6.8.3-4.2.2 2.6.2 6.7 0 9zm160.2 17.9c.1 4.2-.2 4.8-2 4.8-1.6 0-2-.4-1.4-1.8.3-.9.9-3.9 1.2-6.7.8-6 2.1-3.7 2.2 3.7zM137 138c0 .5-2.1.9-4.7.9l-4.8-.2 4-.7c2.2-.4 4.3-.8 4.8-.9.4 0 .7.3.7.9zm91 0c2.2.7 2.1.8-1.2.9-2.1.1-3.8-.4-3.8-.9 0-1.1 1.4-1.1 5 0zm-179.2 2.7c-2.1.2-5.5.2-7.5 0-2.1-.2-.4-.4 3.7-.4 4.1 0 5.8.2 3.8.4zM177 142c0 .6-3.5.9-8.7.9-6.5-.1-7.9-.4-5.3-.9 5.4-1.1 14-1.1 14 0zm-120 1.7c.8.7.6 26.5-.2 29.4-1.1 3.9-9.3 5.9-24.2 5.9H20.9l.5-3.3c1.3-8.2 1.6-18.7.6-24.2-.6-3.9-.6-6.1 0-6.3.6-.2 1-.9 1-1.6 0-.9 4.2-1.1 16.8-.8 9.2.2 16.9.6 17.2.9zm100 .3c2.5.5 7.9.9 12.1.9 7 .1 7.7.3 8.2 2.3.3 1.2.3 8.8 0 17l-.6 14.8h-3.6c-4.7 0-24.8-1.8-28.4-2.6l-2.9-.6.4-15.9c.2-12.8.6-16.2 1.8-17 1.4-.9 2.7-.8 13 1.1zm141.9-.5c.2.2.6 4.5.9 9.5.5 9.5-1.2 22.3-3.2 23.8-.6.5-7.9.6-16.2.4l-15.1-.4-.6-13.7c-.2-7.5-1-14.9-1.6-16.4-.6-1.6-.8-3.3-.5-3.9.5-.8 6.2-.9 18.3-.4 9.6.4 17.7.9 18 1.1zM64 161c0 15.3-.2 18-1.5 18-1.2 0-1.5-1.8-1.5-10.3 0-13.2 1-25.7 2.1-25.7.5 0 .9 8.1.9 18zm239-15.5c0 1.4-.4 2.5-1 2.5-.5 0-1-1.1-1-2.5s.5-2.5 1-2.5c.6 0 1 1.1 1 2.5zm-40.1 19.4c.1 12.3-.6 9.5-1.2-4.9-.3-8.1-.2-10.9.3-8 .5 2.5.9 8.3.9 12.9zm-45.4 9.9c-1.2 7.9-1.7 3.5-.8-7 .8-9.8.8-10 1.1-3.8.2 3.6 0 8.5-.3 10.8zm39.6 1.4-1.1 3.3.5-4c.3-2.2.6-5.6.7-7.5.1-3.3.2-3.3.5.7.2 2.2-.1 5.6-.6 7.5zm-34.2-3.5c.1 1.3-.3 2.3-.9 2.3-.5 0-1-1.9-.9-4.3 0-3.2.2-3.7.9-2.2.5 1.1.9 3 .9 4.2zm-44.2 4.5c-.2 1.3-.4.5-.4-1.7-.1-2.2.1-3.2.4-2.3.2 1 .2 2.8 0 4zm66 4.9 12.1 1.2.6 3c.8 3.8.8 15.4 0 23.9l-.7 6.6-5.1.9c-5.7 1-26.6-.4-26.6-1.8 0-.5-.6-.9-1.4-.9-1.6 0-3.2-22.8-2.1-30.5l.8-4.7 5.1.6c2.8.3 10.6 1.1 17.3 1.7zM99 197.6c0 13.8-.3 16.8-1.6 18.1-1.2 1.3-4.5 1.7-14.4 2.1-16.4.6-19.6 0-20.5-3.6-1.3-5-.6-22.9.9-26.7.8-1.9 1.6-3.5 1.8-3.6 4.7-1.2 18.4-2.7 25.1-2.8l8.7-.1v16.6zm35.3-15.6c1.1 0 2.4 1.4 3.3 3.7 1.3 2.9 1.4 6 .9 16.4l-.7 12.7-3 .6c-3.9.8-26.6.8-29.5 0-2-.5-2.2-1.4-2.8-13.2-.7-10.9-.5-13 1-15.8 1.6-3.1 1.8-3.2 11.8-4.2 5.6-.5 11.8-.8 13.7-.6 1.9.2 4.3.4 5.3.4zm32.1-.1c4.3.5 8.1 1.4 8.5 2 .4.6 1.3 6.6 2 13.4.6 6.7 1.4 13.3 1.6 14.7.4 2.5.2 2.6-10.8 4.3-6.2.9-14.2 2-17.8 2.3l-6.6.6-.6-14.4c-.7-14.1-.1-19.1 2.6-22.6 1.1-1.4 9.2-1.5 21.1-.3zM51.7 183h5.2l.7 4.7c.8 5.2.8 6.2-.3 20.3l-.8 9.5-4.5-.5c-2.5-.3-10.5-.4-17.7-.2-15.7.3-14.1 2.4-14.5-19l-.3-14.7 8.5-.4c4.7-.2 10.8-.2 13.5-.1 2.8.2 7.3.4 10.2.4zm163-.4c2.1.6 2.2 1 2 13.8-.1 7.2.1 14.3.5 15.8.7 2.4.5 2.7-2.3 3.3-1.7.4-9.8.4-18 0l-14.9-.7v-13.7c0-17.5.1-17.9 5.4-18.4 7.1-.6 25-.7 27.3-.1zm81.7 0c3.8.6 4.6 1 4.1 2.3-.4.9-.9 8.4-1.2 16.7l-.6 15.1-16.7.7c-9.3.3-17.5.4-18.3.1-1.1-.5-1.2-1.5-.4-5.8.5-2.9.7-9.8.3-15.5-.7-11.6-.2-12.8 5.5-13.5 5.8-.7 22.4-.7 27.3-.1zm-77.7 21.1c-.2 2.1-.4.6-.4-3.2 0-3.9.2-5.5.4-3.8.2 1.8.2 5 0 7zm42.4 7.8-.9 4-.1-5c0-2.8.3-7.5.7-10.5l.7-5.5.3 6.5c.1 3.6-.1 8.3-.7 10.5zm-141.6 7c.6.2-2.9.4-7.7.4-4.9.1-8.8-.3-8.8-.7 0-.8 14.1-.5 16.5.3zm75.4-1c-1 .9-10.9 1.3-11.4.4-.4-.5 2-.9 5.6-.9 3.4 0 6 .2 5.8.5zm22.1.5c0 .5-1.5 1-3.2.9-3.1-.1-3.2-.1-.8-.9 3.5-1.1 4-1.1 4 0zm71.3.7c-.7.2-1.9.2-2.5 0-.7-.3-.2-.5 1.2-.5s1.9.2 1.3.5zM99 220c0 .5-.7.7-1.5.4-.8-.4-1.5-.8-1.5-1 0-.2.7-.4 1.5-.4s1.5.4 1.5 1zm-41.6 2.2c2.5 2.6 2.2 13.8-.9 32.5-.4 2.4-.2 3.2 1.2 3.6 1 .3-.8.5-3.9.6-3.1 0-6.9-.4-8.5-1-1.5-.6-7.3-1.3-12.8-1.5l-10-.4-.3-4.7c-.2-2.7-.1-10.7.3-17.8l.7-13h16.3c13.6.1 16.5.4 17.9 1.7zm175.4-1.4c.8.6-.8 1.2-4.3 1.9-4.3.7-5.5.7-5.5-.3 0-1.1 2.1-1.8 7-2.2.8-.1 2.1.2 2.8.6zm-94.8 3.6c.5 1.6 1 9.1 1 16.7 0 13.2-.1 13.9-2 13.9-1.1 0-2 .4-2 1 0 .5.9 1 2 1s2 .3 2 .7c0 .5-5.3.8-11.7.8-6.5 0-13.6.3-15.8.7-2.2.4-4.6.4-5.4-.1-2.1-1.3-3-8.4-3.1-23.3v-13.7l4.3-.3c2.3-.2 9.9-.3 16.9-.3H137l1 2.9zm9.3-2.7c-.7.2-2.1.2-3 0-1-.3-.4-.5 1.2-.5 1.7 0 2.4.2 1.8.5zm69.4.4c2.2.1 2.2.4 2.5 16.5l.3 16.4-7.5 1.7c-9.7 2.3-23.3 2.3-25.8 0-2.3-2.1-3.6-2.2-2.8-.2.3.8 0 1.5-.6 1.5-1.7 0-.6-33.2 1.3-35.4 1.2-1.5 3-1.6 15.9-1.1 8 .3 15.5.6 16.7.6zm83.5 13.7c-.1 8.1-.5 16.6-.8 18.9l-.5 4.3-6.2-.1-6.2-.1 5.3-1c2.8-.5 5.2-1.4 5.2-2 0-.6-1.1-.8-2.7-.4s-9.2 1-17 1.3c-11.8.5-14.3.3-14.3-.8 0-7.2-1.1-30.3-1.6-31-.3-.5 0-1.5.7-2.2.9-1 6-1.3 19.8-1.5l18.6-.1-.3 14.7zm-157.5 6.9c-.2 2.1-.4.6-.4-3.2 0-3.9.2-5.5.4-3.8.2 1.8.2 5 0 7zm34.3 14c-1.1 1.7-1.1 1.7-.6 0 .3-1 .7-2.8.7-4 .2-2.2.2-2.2.6 0 .2 1.2-.1 3-.7 4zm81.7-2.5c-.3.8-.6.5-.6-.6-.1-1.1.2-1.7.5-1.3.3.3.4 1.2.1 1.9zm-87.4 4.5c-.7.2-1.9.2-2.5 0-.7-.3-.2-.5 1.2-.5s1.9.2 1.3.5zm47.5 0c-1 .2-2.8.2-4 0-1.3-.2-.5-.4 1.7-.4 2.2-.1 3.2.1 2.3.4zm-122.2 4.6c2.3 2.2 3.2 23.7 1.3 31l-1 4.2-15.8.3-15.9.3-1.1-6.3c-1.4-7.3-1.9-25.1-.9-28.8l.7-2.5 16.1.6c8.8.3 16.3.8 16.6 1.2zm82.2 13c.3 7.8 0 14.9-.7 17.3l-1.1 4.1-6.7.6c-3.8.4-11.4.7-16.9.7-9.7 0-10.2-.1-10.8-2.3-.8-2.9-.8-25.1 0-30l.7-3.7 9.1-.1c5-.1 12.5-.4 16.6-.8 4.1-.3 7.9-.3 8.5.2.5.4 1.1 6.7 1.3 14zm30.3-14.3c2.9.6 5.6 1.5 6 2.2.4.6 1.4.8 2.3.5 1.4-.6 1.6 1.2 1.6 16.8V299h-6.7c-3.8 0-12.2.5-18.7 1-11.3 1-14.3.8-12.1-.8.6-.4 1-3 1-5.7 0-2.8.2-11.2.3-18.8l.2-13.7h10.4c5.7 0 12.7.5 15.7 1zm49.5 14.6c-.3 8.6-1.1 16.4-1.6 17.4-2 3.7-9.6 5.5-22.7 5.5-11.4 0-15.1-.7-12.8-2.3.6-.4 1.1-8.1 1.3-17.2.2-9.1.5-16.6.6-16.7.6-.6 29.5-.4 31.9.2 2.1.6 2.7.4 2.7-.9 0-.9.3-1.6.7-1.6.3 0 .3 7-.1 15.6zm-122.2-14c2.4.9 2.9 8.3 1.6 23l-1.3 13.6-16.3-.4c-9-.2-16.7-.8-17.2-1.3-.4-.6-.5-8.3-.2-17.3.4-13 .8-16.5 2-17.2 1.6-1 28.8-1.4 31.4-.4zm157.5.1 5.3.6-.6 11.6c-.4 6.4-1.4 14.6-2.3 18.3-1.4 5.7-2 6.8-3.7 6.8-3.2 0-28.7-2.8-29.1-3.2-.6-.6-.7-4.5-.6-19.6l.1-15.2h12.8c7 0 15.1.3 18.1.7zM59 297c0 1.1-.4 2-.9 2s-.7-.9-.4-2c.3-1.1.7-2 .9-2 .2 0 .4.9.4 2zm239.6 1.7c-1 1-1.9-.5-1-1.8.6-1.1.8-1.1 1.2 0 .2.7.1 1.5-.2 1.8zm-41.6.8c0 1.6-.9 1.9-3.5.9-1.3-.5-1.4-.8-.3-1.5 2-1.3 3.8-1.1 3.8.6zM115.5 301c4.9.7 4.9.7-2.5.9-4.1 0-8.2-.4-9-.9-1.8-1.2 4-1.2 11.5 0z"/></svg>